<?xml version="1.0" encoding="utf-8"?>
<!-- Generator: Adobe Illustrator 28.0.0, SVG Export Plug-In . SVG Version: 6.00 Build 0)  -->
<svg version="1.1" id="Layer_1" xmlns="http://www.w3.org/2000/svg" xmlns:xlink="http://www.w3.org/1999/xlink" x="0px" y="0px"
	 viewBox="0 0 145 145" style="enable-background:new 0 0 145 145;" xml:space="preserve">
<style type="text/css">
	.st0{fill:url(#SVGID_1_);}
	.st1{fill:url(#SVGID_00000005232165602125058690000000936290080465915828_);}
	.st2{fill:#FFFFFF;}
	.st3{fill:url(#SVGID_00000117668297233436173480000007782017751048225928_);}
	.st4{fill:url(#SVGID_00000077311355301133394750000010398498316104634028_);}
	.st5{fill:url(#SVGID_00000056419757686556466780000010186370510407078049_);}
	.st6{fill:url(#SVGID_00000047056020968262986630000016458498265956147358_);}
	.st7{fill:url(#SVGID_00000038400090667542024300000003454236853168376715_);}
	.st8{fill:url(#SVGID_00000008858886056786073500000004224115807044275120_);}
	.st9{fill:url(#SVGID_00000021826903914285513830000018139269887947893930_);}
	.st10{fill:url(#SVGID_00000139278638851283160180000013499941210338288290_);}
</style>
<g>
	
		<linearGradient id="SVGID_1_" gradientUnits="userSpaceOnUse" x1="36.8135" y1="140.2258" x2="103.498" y2="-2.7875" gradientTransform="matrix(1 0 0 -1 0 144.83)">
		<stop  offset="5.000000e-02" style="stop-color:#74D0F4"/>
		<stop  offset="0.96" style="stop-color:#4968B1"/>
	</linearGradient>
	<path class="st0" d="M109.6,61.3c0.1-1.5,0.2-2.9,0.2-4.4c0-30.6-24.3-55.4-54.3-55.4S1.1,26.3,1.1,56.9s24.3,55.4,54.3,55.4
		c2.9,0,5.8-0.2,8.5-0.7c4.2,18.3,20.3,31.9,39.5,31.9c22.4,0,40.5-18.5,40.5-41.3C143.9,81.5,129,64.3,109.6,61.3z"/>
	
		<linearGradient id="SVGID_00000039842608239174473600000012316195451396063668_" gradientUnits="userSpaceOnUse" x1="36.8135" y1="140.2258" x2="103.498" y2="-2.7875" gradientTransform="matrix(1 0 0 -1 0 144.83)">
		<stop  offset="5.000000e-02" style="stop-color:#A3DDEE"/>
		<stop  offset="0.22" style="stop-color:#8EC3E0"/>
		<stop  offset="0.96" style="stop-color:#395AA9"/>
	</linearGradient>
	<path style="fill:url(#SVGID_00000039842608239174473600000012316195451396063668_);" d="M109.6,61.3c0.1-1.5,0.2-2.9,0.2-4.4
		c0-30.6-24.3-55.4-54.3-55.4S1.1,26.3,1.1,56.9s24.3,55.4,54.3,55.4c2.9,0,5.8-0.2,8.5-0.7c4.2,18.3,20.3,31.9,39.5,31.9
		c22.4,0,40.5-18.5,40.5-41.3C143.9,81.5,129,64.3,109.6,61.3z M103.4,140.7c-8.7,0-16.9-2.9-23.6-8.5c-6.6-5.4-11.2-12.9-13.1-21.2
		l-0.6-2.6l-2.5,0.4c-2.7,0.4-5.4,0.7-8.1,0.7C27,109.5,3.8,85.9,3.8,56.9S27,4.3,55.4,4.3S107,27.9,107,56.9c0,1.4-0.1,2.8-0.2,4.2
		l-0.2,2.6l2.6,0.4c8.8,1.4,16.9,5.9,22.8,12.9c5.9,7,9.2,15.9,9.2,25.2C141.2,123.4,124.2,140.7,103.4,140.7z"/>
	<g>
		<path class="st2" d="M137.8,99.2l-1.4-8.6c-0.6-3.5-3.4-6.1-6.9-6.4l-5.3-0.4l0.6-5.4c0.4-3.5-1.6-6.9-4.8-8.1l-8-3
			c-3.3-1.2-6.9,0-8.9,2.9l-3,4.5L97.8,73c0-0.2,0.1-0.3,0.1-0.5l2.3-9.5c0.8-3.5-0.8-7-3.9-8.7l-5.8-3l4.6-4.7
			c2.5-2.5,3-6.4,1.2-9.4l-5-8.3c-1.8-3-5.4-4.4-8.7-3.3l-6.2,2l0-6.6c0-3.6-2.3-6.7-5.7-7.5l-9.3-2.3c-3.4-0.9-6.9,0.8-8.5,4
			l-3,5.9l-4.6-4.7c-2.5-2.5-6.3-3-9.3-1.2L28,20.2c-3,1.9-4.3,5.5-3.2,8.9l2,6.3l-6.5,0c0,0,0,0-0.1,0c-3.5,0-6.5,2.4-7.3,5.8
			l-2.3,9.5c-0.8,3.5,0.8,7,3.9,8.6l5.8,3l-4.6,4.7c-2.5,2.5-3,6.4-1.2,9.4l5,8.3c1.8,3.1,5.4,4.4,8.7,3.3l6.2-2.1l0,6.6
			c0,3.6,2.3,6.7,5.7,7.5l9.3,2.3l0,0c0.6,0.2,1.2,0.2,1.8,0.2c2.8,0,5.4-1.6,6.7-4.2l3-5.9l4.6,4.7c1.5,1.6,3.6,2.4,5.6,2.3
			c-0.1,0.7-0.1,1.4,0,2.2l1.4,8.6c0.6,3.5,3.4,6.1,6.9,6.4l5.3,0.4l-0.6,5.4c-0.4,3.5,1.6,6.9,4.8,8.1l8,3l0,0
			c0.9,0.3,1.8,0.5,2.6,0.5c2.5,0,4.8-1.2,6.2-3.4l3-4.5l4.2,3.2c2.8,2.1,6.6,2.1,9.3-0.2l6.6-5.6c2.7-2.3,3.5-6.1,2-9.3l-2.3-4.8
			l4.9-2.1C136.5,106.1,138.4,102.7,137.8,99.2L137.8,99.2z"/>
		<g>
			<g>
				<g>
					
						<linearGradient id="SVGID_00000098206236741717029370000005256369553455681469_" gradientUnits="userSpaceOnUse" x1="876.2434" y1="-154.1639" x2="956.403" y2="-154.1639" gradientTransform="matrix(0.9714 0.2373 0.2373 -0.9714 -798.1519 -310.3351)">
						<stop  offset="0" style="stop-color:#262D3D"/>
						<stop  offset="0.9" style="stop-color:#151B2D"/>
					</linearGradient>
					<path style="fill:url(#SVGID_00000098206236741717029370000005256369553455681469_);" d="M50.5,97.7l-9.3-2.3
						c-1.2-0.3-2-1.4-2-2.6l0.1-9.6c-1.3-0.8-2.5-1.8-3.7-2.8l-8.9,2.9c-1.2,0.4-2.4-0.1-3-1.2l-5-8.3c-0.6-1.1-0.5-2.4,0.4-3.3
						l6.7-6.7c-0.4-1.5-0.6-3.1-0.7-4.7L16.7,55c-1.1-0.6-1.6-1.8-1.4-3l2.3-9.5c0.3-1.2,1.4-2,2.6-2l9.4,0.1
						c0.8-1.3,1.7-2.6,2.7-3.8l-2.9-9.1c-0.4-1.2,0.1-2.5,1.1-3.1l8.2-5.1c1-0.6,2.4-0.5,3.2,0.4l6.6,6.8c1.5-0.4,3-0.6,4.6-0.7
						l4.3-8.5c0.5-1.1,1.8-1.7,3-1.4l9.3,2.3c1.2,0.3,2,1.4,2,2.6l-0.1,9.6c1.3,0.8,2.5,1.8,3.7,2.8l8.9-3c1.2-0.4,2.4,0.1,3,1.1
						l5,8.3c0.6,1.1,0.5,2.4-0.4,3.3L85,49.9c0.4,1.5,0.6,3.1,0.7,4.7l8.3,4.3c1.1,0.6,1.6,1.8,1.4,3l-2.3,9.5c-0.3,1.2-1.4,2-2.6,2
						l-9.4-0.1c-0.8,1.3-1.7,2.6-2.7,3.8l2.9,9.1c0.4,1.2-0.1,2.5-1.1,3.1l-8.2,5.1c-1,0.6-2.4,0.5-3.2-0.4l-6.6-6.8
						c-1.5,0.4-3,0.6-4.6,0.7l-4.3,8.5C52.9,97.4,51.7,98,50.5,97.7z M44.5,90.7l5.3,1.3l4-8c0.4-0.9,1.3-1.4,2.3-1.4
						c2.1-0.1,4.3-0.4,6.3-1c0.9-0.3,1.9,0,2.6,0.7l6.2,6.4l4.6-2.9L73,77.3c-0.3-0.9-0.1-1.9,0.6-2.7c1.5-1.6,2.8-3.4,3.8-5.3
						c0.5-0.9,1.4-1.4,2.3-1.4l8.8,0.1l1.3-5.4L82,58.6c-0.9-0.4-1.4-1.3-1.4-2.3c0-2.2-0.4-4.4-1-6.5c-0.3-0.9,0-2,0.7-2.6l6.3-6.3
						l-2.8-4.7l-8.4,2.8c-0.9,0.3-1.9,0.1-2.6-0.6c-1.6-1.5-3.3-2.8-5.2-3.9c-0.8-0.5-1.4-1.4-1.4-2.4l0.1-9L61,21.8l-4,8
						c-0.4,0.9-1.3,1.4-2.3,1.5c-2.1,0-4.3,0.4-6.3,1c-0.9,0.3-1.9,0-2.6-0.7l-6.2-6.4L35,28l2.7,8.5c0.3,0.9,0.1,2-0.6,2.7
						c-1.5,1.6-2.8,3.4-3.8,5.3c-0.5,0.9-1.4,1.4-2.3,1.4l-8.8-0.1L21,51.2l7.8,4.1c0.9,0.4,1.4,1.3,1.4,2.3c0,2.2,0.4,4.4,1,6.5
						c0.3,0.9,0,2-0.7,2.6L24.2,73l2.8,4.7l8.4-2.8c0.9-0.3,1.9-0.1,2.6,0.6c1.6,1.5,3.3,2.8,5.2,3.9c0.8,0.5,1.4,1.4,1.4,2.4
						L44.5,90.7L44.5,90.7z M90.6,70.7L90.6,70.7L90.6,70.7z"/>
					
						<linearGradient id="SVGID_00000039124617116439982690000002713422825386347948_" gradientUnits="userSpaceOnUse" x1="900.0736" y1="-154.1542" x2="932.5681" y2="-154.1542" gradientTransform="matrix(0.9714 0.2373 0.2373 -0.9714 -798.1519 -310.3351)">
						<stop  offset="0" style="stop-color:#262D3D"/>
						<stop  offset="0.9" style="stop-color:#151B2D"/>
					</linearGradient>
					<path style="fill:url(#SVGID_00000039124617116439982690000002713422825386347948_);" d="M51.5,73c-8.7-2.2-14-11.1-11.9-20
						c2.1-8.9,10.9-14.3,19.6-12.2s14,11.1,11.9,20C69,69.7,60.2,75.1,51.5,73z M58.6,43.4c-7.3-1.8-14.7,2.8-16.5,10.2
						s2.7,15,10,16.8s14.7-2.8,16.5-10.2C70.4,52.8,65.9,45.2,58.6,43.4z"/>
				</g>
				<g>
					
						<linearGradient id="SVGID_00000018949752829948629900000015781007876051075477_" gradientUnits="userSpaceOnUse" x1="1382.0187" y1="-227.0833" x2="1436.1398" y2="-227.0833" gradientTransform="matrix(0.9374 0.3482 0.3482 -0.9374 -1137.4037 -603.0267)">
						<stop  offset="0" style="stop-color:#262D3D"/>
						<stop  offset="0.9" style="stop-color:#151B2D"/>
					</linearGradient>
					<path style="fill:url(#SVGID_00000018949752829948629900000015781007876051075477_);" d="M98.6,129.1l-8-3
						c-1.1-0.4-1.8-1.6-1.7-2.8l1-8.1c-0.8-0.8-1.5-1.8-2.2-2.7l-8-0.5c-1.2-0.1-2.2-1-2.4-2.2l-1.4-8.6c-0.2-1.2,0.4-2.4,1.6-2.9
						l7.3-3.2c0.2-0.6,0.3-1.1,0.5-1.7s0.4-1.1,0.7-1.6l-3.5-7.3c-0.5-1.1-0.3-2.4,0.7-3.2l6.6-5.6c0.9-0.8,2.3-0.8,3.2-0.1l6.4,4.9
						c1.1-0.3,2.3-0.5,3.4-0.6l4.4-6.8c0.7-1,2-1.4,3.1-1l8,3c1.1,0.4,1.8,1.6,1.7,2.8l-1,8.1c0.8,0.8,1.5,1.8,2.2,2.7l8,0.5
						c1.2,0.1,2.2,1,2.4,2.2l1.4,8.6c0.2,1.2-0.4,2.4-1.6,2.9l-7.3,3.2c-0.2,0.6-0.3,1.1-0.5,1.7c-0.2,0.6-0.4,1.1-0.7,1.6l3.5,7.3
						c0.5,1.1,0.3,2.4-0.7,3.2l-6.6,5.6c-0.9,0.8-2.3,0.8-3.2,0.1l-6.4-4.9c-1.1,0.3-2.3,0.5-3.4,0.6l-4.4,6.8
						C101,129.1,99.7,129.5,98.6,129.1L98.6,129.1z M94.3,121.7l4.2,1.6l4-6.1c0.5-0.7,1.3-1.2,2.1-1.2c1.6,0,3.1-0.3,4.6-0.8
						c0.8-0.3,1.7-0.1,2.4,0.4l5.8,4.4l3.4-2.9l-3.2-6.6c-0.4-0.8-0.4-1.7,0.1-2.5c0.4-0.7,0.7-1.4,1-2.2c0.3-0.7,0.5-1.5,0.6-2.3
						c0.2-0.9,0.7-1.6,1.5-1.9l6.6-2.9l-0.7-4.5l-7.2-0.5c-0.9-0.1-1.6-0.5-2.1-1.3c-0.8-1.4-1.8-2.6-3-3.7c-0.6-0.6-1-1.4-0.9-2.3
						l0.9-7.3l-4.2-1.6l-4,6.1c-0.5,0.7-1.3,1.2-2.1,1.2c-1.6,0-3.1,0.3-4.6,0.8c-0.8,0.3-1.7,0.1-2.4-0.4L91.4,81L88,83.9l3.2,6.6
						c0.4,0.8,0.4,1.7-0.1,2.5c-0.4,0.7-0.7,1.4-1,2.2c-0.3,0.8-0.5,1.5-0.6,2.3c-0.2,0.9-0.7,1.6-1.5,1.9l-6.6,2.9l0.7,4.5l7.2,0.5
						c0.9,0.1,1.6,0.5,2.1,1.3c0.8,1.4,1.8,2.6,3,3.7c0.6,0.6,1,1.4,0.9,2.3C95.2,114.4,94.3,121.7,94.3,121.7z"/>
					
						<linearGradient id="SVGID_00000111188400421957060830000006973236696523248772_" gradientUnits="userSpaceOnUse" x1="1398.6927" y1="-227.0782" x2="1419.484" y2="-227.0782" gradientTransform="matrix(0.9374 0.3482 0.3482 -0.9374 -1137.4037 -603.0267)">
						<stop  offset="0" style="stop-color:#262D3D"/>
						<stop  offset="0.9" style="stop-color:#151B2D"/>
					</linearGradient>
					<path style="fill:url(#SVGID_00000111188400421957060830000006973236696523248772_);" d="M100.8,110.5c-5.4-2-8.1-8.1-6.1-13.6
						s8-8.3,13.3-6.2s8.1,8.1,6.1,13.6S106.2,112.5,100.8,110.5z M107.1,93.1c-4-1.5-8.5,0.6-10,4.7c-1.5,4.1,0.6,8.7,4.6,10.2
						s8.5-0.6,10-4.7C113.2,99.2,111.1,94.7,107.1,93.1z"/>
				</g>
			</g>
			<g>
				<g>
					
						<linearGradient id="SVGID_00000076595549801513659160000006345134461912935597_" gradientUnits="userSpaceOnUse" x1="38.0789" y1="125.0548" x2="93.2021" y2="6.8553" gradientTransform="matrix(1 0 0 -1 0 144.83)">
						<stop  offset="0" style="stop-color:#353A48"/>
						<stop  offset="0.9" style="stop-color:#151B2D"/>
					</linearGradient>
					<path style="fill:url(#SVGID_00000076595549801513659160000006345134461912935597_);" d="M50.5,97.7l-9.3-2.3
						c-1.2-0.3-2-1.4-2-2.6l0.1-9.6c-1.3-0.8-2.5-1.8-3.7-2.8l-8.9,2.9c-1.2,0.4-2.4-0.1-3-1.2l-5-8.3c-0.6-1.1-0.5-2.4,0.4-3.3
						l6.7-6.7c-0.4-1.5-0.6-3.1-0.7-4.7L16.7,55c-1.1-0.6-1.6-1.8-1.4-3l2.3-9.5c0.3-1.2,1.4-2,2.6-2l9.4,0.1
						c0.8-1.3,1.7-2.6,2.7-3.8l-2.9-9.1c-0.4-1.2,0.1-2.5,1.1-3.1l8.2-5.1c1-0.6,2.4-0.5,3.2,0.4l6.6,6.8c1.5-0.4,3-0.6,4.6-0.7
						l4.3-8.5c0.5-1.1,1.8-1.7,3-1.4l9.3,2.3c1.2,0.3,2,1.4,2,2.6l-0.1,9.6c1.3,0.8,2.5,1.8,3.7,2.8l8.9-3c1.2-0.4,2.4,0.1,3,1.1
						l5,8.3c0.6,1.1,0.5,2.4-0.4,3.3L85,49.9c0.4,1.5,0.6,3.1,0.7,4.7l8.3,4.3c1.1,0.6,1.6,1.8,1.4,3l-2.3,9.5c-0.3,1.2-1.4,2-2.6,2
						l-9.4-0.1c-0.8,1.3-1.7,2.6-2.7,3.8l2.9,9.1c0.4,1.2-0.1,2.5-1.1,3.1l-8.2,5.1c-1,0.6-2.4,0.5-3.2-0.4l-6.6-6.8
						c-1.5,0.4-3,0.6-4.6,0.7l-4.3,8.5C52.9,97.4,51.7,98,50.5,97.7z M44.5,90.7l5.3,1.3l4-8c0.4-0.9,1.3-1.4,2.3-1.4
						c2.1-0.1,4.3-0.4,6.3-1c0.9-0.3,1.9,0,2.6,0.7l6.2,6.4l4.6-2.9L73,77.3c-0.3-0.9-0.1-1.9,0.6-2.7c1.5-1.6,2.8-3.4,3.8-5.3
						c0.5-0.9,1.4-1.4,2.3-1.4l8.8,0.1l1.3-5.4L82,58.6c-0.9-0.4-1.4-1.3-1.4-2.3c0-2.2-0.4-4.4-1-6.5c-0.3-0.9,0-2,0.7-2.6l6.3-6.3
						l-2.8-4.7l-8.4,2.8c-0.9,0.3-1.9,0.1-2.6-0.6c-1.6-1.5-3.3-2.8-5.2-3.9c-0.8-0.5-1.4-1.4-1.4-2.4l0.1-9L61,21.8l-4,8
						c-0.4,0.9-1.3,1.4-2.3,1.5c-2.1,0-4.3,0.4-6.3,1c-0.9,0.3-1.9,0-2.6-0.7l-6.2-6.4L35,28l2.7,8.5c0.3,0.9,0.1,2-0.6,2.7
						c-1.5,1.6-2.8,3.4-3.8,5.3c-0.5,0.9-1.4,1.4-2.3,1.4l-8.8-0.1L21,51.2l7.8,4.1c0.9,0.4,1.4,1.3,1.4,2.3c0,2.2,0.4,4.4,1,6.5
						c0.3,0.9,0,2-0.7,2.6L24.2,73l2.8,4.7l8.4-2.8c0.9-0.3,1.9-0.1,2.6,0.6c1.6,1.5,3.3,2.8,5.2,3.9c0.8,0.5,1.4,1.4,1.4,2.4
						L44.5,90.7L44.5,90.7z M90.6,70.7L90.6,70.7L90.6,70.7z"/>
					
						<linearGradient id="SVGID_00000153699377572452863490000017734354820716857223_" gradientUnits="userSpaceOnUse" x1="38.0727" y1="125.0781" x2="93.191" y2="6.8891" gradientTransform="matrix(1 0 0 -1 0 144.83)">
						<stop  offset="0" style="stop-color:#353A48"/>
						<stop  offset="0.9" style="stop-color:#151B2D"/>
					</linearGradient>
					<path style="fill:url(#SVGID_00000153699377572452863490000017734354820716857223_);" d="M51.5,73c-8.7-2.2-14-11.1-11.9-20
						c2.1-8.9,10.9-14.3,19.6-12.2s14,11.1,11.9,20C69,69.7,60.2,75.1,51.5,73z M58.6,43.4c-7.3-1.8-14.7,2.8-16.5,10.2
						s2.7,15,10,16.8s14.7-2.8,16.5-10.2C70.4,52.8,65.9,45.2,58.6,43.4z"/>
				</g>
				<g>
					
						<linearGradient id="SVGID_00000029045806782473384720000002304504150879633066_" gradientUnits="userSpaceOnUse" x1="61.539" y1="136.1743" x2="116.6217" y2="18.0617" gradientTransform="matrix(1 0 0 -1 0 144.83)">
						<stop  offset="0" style="stop-color:#353A48"/>
						<stop  offset="0.9" style="stop-color:#151B2D"/>
					</linearGradient>
					<path style="fill:url(#SVGID_00000029045806782473384720000002304504150879633066_);" d="M98.6,129.1l-8-3
						c-1.1-0.4-1.8-1.6-1.7-2.8l1-8.1c-0.8-0.8-1.5-1.8-2.2-2.7l-8-0.5c-1.2-0.1-2.2-1-2.4-2.2l-1.4-8.6c-0.2-1.2,0.4-2.4,1.6-2.9
						l7.3-3.2c0.2-0.6,0.3-1.1,0.5-1.7s0.4-1.1,0.7-1.6l-3.5-7.3c-0.5-1.1-0.3-2.4,0.7-3.2l6.6-5.6c0.9-0.8,2.3-0.8,3.2-0.1l6.4,4.9
						c1.1-0.3,2.3-0.5,3.4-0.6l4.4-6.8c0.7-1,2-1.4,3.1-1l8,3c1.1,0.4,1.8,1.6,1.7,2.8l-1,8.1c0.8,0.8,1.5,1.8,2.2,2.7l8,0.5
						c1.2,0.1,2.2,1,2.4,2.2l1.4,8.6c0.2,1.2-0.4,2.4-1.6,2.9l-7.3,3.2c-0.2,0.6-0.3,1.1-0.5,1.7c-0.2,0.6-0.4,1.1-0.7,1.6l3.5,7.3
						c0.5,1.1,0.3,2.4-0.7,3.2l-6.6,5.6c-0.9,0.8-2.3,0.8-3.2,0.1l-6.4-4.9c-1.1,0.3-2.3,0.5-3.4,0.6l-4.4,6.8
						C101,129.1,99.7,129.5,98.6,129.1L98.6,129.1z M94.3,121.7l4.2,1.6l4-6.1c0.5-0.7,1.3-1.2,2.1-1.2c1.6,0,3.1-0.3,4.6-0.8
						c0.8-0.3,1.7-0.1,2.4,0.4l5.8,4.4l3.4-2.9l-3.2-6.6c-0.4-0.8-0.4-1.7,0.1-2.5c0.4-0.7,0.7-1.4,1-2.2c0.3-0.7,0.5-1.5,0.6-2.3
						c0.2-0.9,0.7-1.6,1.5-1.9l6.6-2.9l-0.7-4.5l-7.2-0.5c-0.9-0.1-1.6-0.5-2.1-1.3c-0.8-1.4-1.8-2.6-3-3.7c-0.6-0.6-1-1.4-0.9-2.3
						l0.9-7.3l-4.2-1.6l-4,6.1c-0.5,0.7-1.3,1.2-2.1,1.2c-1.6,0-3.1,0.3-4.6,0.8c-0.8,0.3-1.7,0.1-2.4-0.4L91.4,81L88,83.9l3.2,6.6
						c0.4,0.8,0.4,1.7-0.1,2.5c-0.4,0.7-0.7,1.4-1,2.2c-0.3,0.8-0.5,1.5-0.6,2.3c-0.2,0.9-0.7,1.6-1.5,1.9l-6.6,2.9l0.7,4.5l7.2,0.5
						c0.9,0.1,1.6,0.5,2.1,1.3c0.8,1.4,1.8,2.6,3,3.7c0.6,0.6,1,1.4,0.9,2.3C95.2,114.4,94.3,121.7,94.3,121.7z"/>
					
						<linearGradient id="SVGID_00000128487192732892314260000011400149107396936335_" gradientUnits="userSpaceOnUse" x1="61.5198" y1="136.2366" x2="116.6375" y2="18.0489" gradientTransform="matrix(1 0 0 -1 0 144.83)">
						<stop  offset="0" style="stop-color:#353A48"/>
						<stop  offset="0.9" style="stop-color:#151B2D"/>
					</linearGradient>
					<path style="fill:url(#SVGID_00000128487192732892314260000011400149107396936335_);" d="M100.8,110.5c-5.4-2-8.1-8.1-6.1-13.6
						s8-8.3,13.3-6.2s8.1,8.1,6.1,13.6S106.2,112.5,100.8,110.5z M107.1,93.1c-4-1.5-8.5,0.6-10,4.7c-1.5,4.1,0.6,8.7,4.6,10.2
						s8.5-0.6,10-4.7C113.2,99.2,111.1,94.7,107.1,93.1z"/>
				</g>
			</g>
		</g>
	</g>
</g>
</svg>
