<?xml version="1.0" encoding="UTF-8"?>
<svg xmlns="http://www.w3.org/2000/svg" xmlns:xlink="http://www.w3.org/1999/xlink" viewBox="0 0 306.66 142.06">
  <defs>
    <style>
      .cls-1 {
        font-size: 34.47px;
      }

      .cls-1, .cls-2 {
        font-family: Prompt-ExtraBold, Prompt;
        font-weight: 700;
      }

      .cls-1, .cls-3 {
        fill: #262d3d;
      }

      .cls-4 {
        letter-spacing: .05em;
      }

      .cls-5 {
        fill: #fed700;
      }

      .cls-5, .cls-6, .cls-7, .cls-8, .cls-9, .cls-10, .cls-11, .cls-12, .cls-13, .cls-14, .cls-15, .cls-16, .cls-17, .cls-18, .cls-19, .cls-20, .cls-21, .cls-3, .cls-22 {
        stroke-width: 0px;
      }

      .cls-5, .cls-23 {
        mix-blend-mode: multiply;
      }

      .cls-6 {
        fill: url(#Degradado_sin_nombre_13);
      }

      .cls-7 {
        fill: url(#Degradado_sin_nombre_12);
      }

      .cls-8 {
        fill: url(#Degradado_sin_nombre_11);
      }

      .cls-9 {
        fill: url(#Degradado_sin_nombre_10);
      }

      .cls-24 {
        letter-spacing: .05em;
      }

      .cls-25 {
        fill: #fbef42;
      }

      .cls-25, .cls-26 {
        font-family: Prompt-Medium, Prompt;
        font-size: 10.69px;
        font-weight: 500;
      }

      .cls-26, .cls-2, .cls-22 {
        fill: #fff;
      }

      .cls-27 {
        letter-spacing: -.01em;
      }

      .cls-2 {
        font-size: 26.57px;
      }

      .cls-10 {
        fill: url(#Degradado_sin_nombre_8375-3);
      }

      .cls-11 {
        fill: url(#Degradado_sin_nombre_8375-2);
      }

      .cls-12 {
        fill: url(#Degradado_sin_nombre_8375-5);
      }

      .cls-13 {
        fill: url(#Degradado_sin_nombre_8375-4);
      }

      .cls-14 {
        fill: url(#Degradado_sin_nombre_8375);
      }

      .cls-15 {
        fill: url(#Degradado_sin_nombre_13-2);
      }

      .cls-16 {
        fill: url(#Degradado_sin_nombre_13-3);
      }

      .cls-17 {
        fill: url(#Degradado_sin_nombre_13-4);
      }

      .cls-18 {
        fill: url(#Degradado_sin_nombre_10-2);
      }

      .cls-19 {
        fill: url(#Degradado_sin_nombre_11-2);
      }

      .cls-28 {
        letter-spacing: .04em;
      }

      .cls-20 {
        fill: url(#Degradado_sin_nombre_8);
      }

      .cls-21 {
        fill: url(#Degradado_sin_nombre_9);
      }

      .cls-29 {
        letter-spacing: .03em;
      }

      .cls-30 {
        letter-spacing: .03em;
      }

      .cls-31 {
        letter-spacing: -.04em;
      }

      .cls-32 {
        isolation: isolate;
      }

      .cls-33 {
        letter-spacing: -.03em;
      }

      .cls-34 {
        letter-spacing: 0em;
      }
    </style>
    <linearGradient id="Degradado_sin_nombre_11" data-name="Degradado sin nombre 11" x1="37.06" y1="2.82" x2="104.06" y2="146.51" gradientUnits="userSpaceOnUse">
      <stop offset=".05" stop-color="#74d0f4"/>
      <stop offset=".96" stop-color="#4968b1"/>
    </linearGradient>
    <linearGradient id="Degradado_sin_nombre_10" data-name="Degradado sin nombre 10" x1="37.06" y1="2.82" x2="104.06" y2="146.51" gradientUnits="userSpaceOnUse">
      <stop offset=".05" stop-color="#a3ddee"/>
      <stop offset=".22" stop-color="#8ec3e0"/>
      <stop offset=".96" stop-color="#395aa9"/>
    </linearGradient>
    <linearGradient id="Degradado_sin_nombre_8375" data-name="Degradado sin nombre 8375" x1="131.49" y1="-9.38" x2="179.56" y2="93.73" gradientUnits="userSpaceOnUse">
      <stop offset="0" stop-color="#353a48"/>
      <stop offset=".9" stop-color="#151b2d"/>
    </linearGradient>
    <linearGradient id="Degradado_sin_nombre_12" data-name="Degradado sin nombre 12" x1="131.49" y1="-9.38" x2="179.56" y2="93.73" gradientUnits="userSpaceOnUse">
      <stop offset=".15" stop-color="#4d4e5c"/>
      <stop offset=".9" stop-color="#0c101b"/>
    </linearGradient>
    <linearGradient id="Degradado_sin_nombre_9" data-name="Degradado sin nombre 9" x1="168.12" y1="17.35" x2="224.82" y2="138.95" gradientUnits="userSpaceOnUse">
      <stop offset=".26" stop-color="#f7ec2b"/>
      <stop offset="1" stop-color="#febc12"/>
    </linearGradient>
    <linearGradient id="Degradado_sin_nombre_8" data-name="Degradado sin nombre 8" x1="168.12" y1="17.35" x2="224.82" y2="138.95" gradientUnits="userSpaceOnUse">
      <stop offset=".17" stop-color="#faf397"/>
      <stop offset=".24" stop-color="#f8ea8b"/>
      <stop offset=".87" stop-color="#eba022"/>
    </linearGradient>
    <linearGradient id="Degradado_sin_nombre_13" data-name="Degradado sin nombre 13" x1="798.91" y1="360.83" x2="880.56" y2="360.83" gradientTransform="translate(-674.63 -494.43) rotate(13.73)" gradientUnits="userSpaceOnUse">
      <stop offset="0" stop-color="#262d3d"/>
      <stop offset=".9" stop-color="#151b2d"/>
    </linearGradient>
    <linearGradient id="Degradado_sin_nombre_13-2" data-name="Degradado sin nombre 13" x1="823.18" y1="360.83" x2="856.29" y2="360.83" xlink:href="#Degradado_sin_nombre_13"/>
    <linearGradient id="Degradado_sin_nombre_13-3" data-name="Degradado sin nombre 13" x1="1274.75" y1="470.22" x2="1329.7" y2="470.22" gradientTransform="translate(-951.52 -795.27) rotate(20.38)" xlink:href="#Degradado_sin_nombre_13"/>
    <linearGradient id="Degradado_sin_nombre_13-4" data-name="Degradado sin nombre 13" x1="1291.65" y1="470.22" x2="1312.8" y2="470.22" gradientTransform="translate(-951.52 -795.27) rotate(20.38)" xlink:href="#Degradado_sin_nombre_13"/>
    <linearGradient id="Degradado_sin_nombre_8375-2" data-name="Degradado sin nombre 8375" x1="44.72" y1="15.04" x2="100.03" y2="133.64" xlink:href="#Degradado_sin_nombre_8375"/>
    <linearGradient id="Degradado_sin_nombre_8375-3" data-name="Degradado sin nombre 8375" x1="44.72" y1="15.04" x2="100.03" y2="133.64" xlink:href="#Degradado_sin_nombre_8375"/>
    <linearGradient id="Degradado_sin_nombre_8375-4" data-name="Degradado sin nombre 8375" x1="44.72" y1="15.04" x2="100.03" y2="133.64" xlink:href="#Degradado_sin_nombre_8375"/>
    <linearGradient id="Degradado_sin_nombre_8375-5" data-name="Degradado sin nombre 8375" x1="44.72" y1="15.04" x2="100.03" y2="133.64" xlink:href="#Degradado_sin_nombre_8375"/>
    <linearGradient id="Degradado_sin_nombre_11-2" data-name="Degradado sin nombre 11" x1="199.2" y1="75.58" x2="228.9" y2="139.27" xlink:href="#Degradado_sin_nombre_11"/>
    <linearGradient id="Degradado_sin_nombre_10-2" data-name="Degradado sin nombre 10" x1="199.2" y1="75.58" x2="228.9" y2="139.27" xlink:href="#Degradado_sin_nombre_10"/>
  </defs>
  <g class="cls-32">
    <g id="Layer_1" data-name="Layer 1">
      <g>
        <path class="cls-8" d="m110.68,59.85c.12-1.46.18-2.93.18-4.42C110.85,24.82,86.04,0,55.43,0S0,24.82,0,55.43s24.82,55.43,55.43,55.43c2.97,0,5.88-.24,8.72-.69,4.27,18.28,20.68,31.89,40.26,31.89,22.83,0,41.34-18.51,41.34-41.34,0-20.7-15.22-37.85-35.07-40.87Z"/>
        <path class="cls-9" d="m110.68,59.85c.12-1.46.18-2.93.18-4.42C110.85,24.82,86.04,0,55.43,0S0,24.82,0,55.43s24.82,55.43,55.43,55.43c2.97,0,5.88-.24,8.72-.69,4.27,18.28,20.68,31.89,40.26,31.89,22.83,0,41.34-18.51,41.34-41.34,0-20.7-15.22-37.85-35.07-40.87Zm-6.27,79.38c-8.87,0-17.2-2.93-24.09-8.47-6.7-5.38-11.46-12.92-13.4-21.24l-.6-2.57-2.6.41c-2.73.43-5.52.65-8.28.65-29,0-52.59-23.59-52.59-52.59S26.43,2.83,55.43,2.83s52.59,23.59,52.59,52.59c0,1.39-.06,2.8-.17,4.2l-.21,2.63,2.61.4c9,1.37,17.27,5.94,23.27,12.86,6.06,6.99,9.4,15.94,9.4,25.21,0,21.23-17.28,38.51-38.51,38.51Z"/>
        <g>
          <g>
            <polygon class="cls-14" points="239.43 65.81 69.08 71.49 69.08 19.72 239.12 6.74 239.43 65.81"/>
            <path class="cls-7" d="m239.12,6.74l-170.04,12.99v51.77l170.35-5.68-.31-59.07Zm-167.2,61.82V22.35l164.39-12.55.28,53.27-164.67,5.49Z"/>
          </g>
          <g class="cls-23">
            <path class="cls-3" d="m106.43,61.57c.85-3.47-.78-7.03-3.97-8.65l-5.91-3.02,4.73-4.66c2.55-2.51,3.03-6.39,1.18-9.44l-5.06-8.33c-1.86-3.05-5.52-4.41-8.92-3.31l-6.31,2.05.05-6.64c0-.29-.02-.57-.05-.86l-13.09,1h0v51.77h0l35.21-1.17,2.14-8.74Z"/>
          </g>
        </g>
        <g>
          <g>
            <polygon class="cls-21" points="298.79 104.45 85.77 104.45 85.77 55.74 306.66 50.76 298.79 104.45"/>
            <path class="cls-20" d="m85.77,55.74v48.71h213.02l7.87-53.69-220.89,4.98Zm210.57,45.87H88.6v-43.1l214.76-4.84-7.02,47.94Z"/>
          </g>
          <path class="cls-5" d="m85.77,55.74v48.71h0s56.88,0,56.88,0c1.72-1.71,2.57-4.19,2.15-6.71l-1.46-8.61c-.59-3.51-3.49-6.13-7.05-6.37l-5.39-.36.65-5.36c.43-3.54-1.6-6.88-4.94-8.12l-8.18-3.04c-3.34-1.24-7.06-.04-9.04,2.92l-3.01,4.49-2.39-1.8c.05-.15.09-.3.13-.46l2.31-9.46c.55-2.24.06-4.51-1.21-6.28l-19.45.45h0Z"/>
        </g>
        <g>
          <path class="cls-22" d="m139.46,97.74l-1.46-8.61c-.59-3.51-3.49-6.13-7.05-6.37l-5.39-.36.65-5.36c.43-3.54-1.6-6.88-4.94-8.12l-8.18-3.04c-3.34-1.24-7.06-.04-9.04,2.92l-3.01,4.49-2.39-1.8c.05-.15.09-.3.13-.46l2.31-9.46c.85-3.47-.78-7.03-3.97-8.65l-5.91-3.02,4.73-4.66c2.55-2.51,3.03-6.39,1.18-9.44l-5.06-8.33c-1.86-3.05-5.52-4.41-8.92-3.31l-6.31,2.05.05-6.64c.03-3.57-2.38-6.66-5.85-7.51l-9.46-2.31c-3.47-.85-7.03.78-8.65,3.97l-3.02,5.91-4.66-4.73c-2.5-2.55-6.39-3.03-9.45-1.18l-8.33,5.06c-3.05,1.85-4.42,5.52-3.31,8.92l2.05,6.31-6.64-.05s-.04,0-.06,0c-3.55,0-6.6,2.4-7.45,5.85l-2.31,9.46c-.85,3.47.78,7.03,3.97,8.65l5.91,3.01-4.73,4.66c-2.55,2.51-3.03,6.39-1.18,9.44l5.06,8.33c1.86,3.06,5.53,4.42,8.92,3.31l6.32-2.05-.05,6.64c-.03,3.57,2.37,6.66,5.85,7.51l9.46,2.31h0c.61.15,1.23.22,1.84.22,2.83,0,5.48-1.57,6.81-4.19l3.02-5.91,4.66,4.73c1.55,1.58,3.63,2.36,5.71,2.29-.08.71-.07,1.45.05,2.19l1.46,8.61c.6,3.51,3.49,6.13,7.05,6.37l5.39.36-.66,5.36c-.43,3.54,1.6,6.88,4.94,8.12l8.18,3.04s0,0,0,0c.88.33,1.79.48,2.68.48,2.5,0,4.9-1.23,6.36-3.41l3.01-4.49,4.32,3.25c2.85,2.14,6.75,2.05,9.5-.22l6.73-5.57c2.75-2.27,3.56-6.09,1.99-9.29l-2.38-4.85,4.97-2.11c3.28-1.39,5.15-4.82,4.56-8.34Z"/>
          <g>
            <g>
              <g>
                <path class="cls-6" d="m50.47,96.24l-9.46-2.31c-1.2-.29-2.04-1.37-2.03-2.61l.08-9.55c-1.33-.83-2.6-1.76-3.79-2.78l-9.09,2.95c-1.18.38-2.46-.1-3.1-1.15l-5.06-8.33c-.64-1.06-.47-2.42.41-3.28l6.81-6.7c-.36-1.53-.6-3.09-.72-4.65l-8.51-4.34c-1.1-.56-1.67-1.81-1.38-3.01l2.31-9.46c.29-1.2,1.38-2.04,2.61-2.03l9.55.08c.83-1.33,1.76-2.6,2.78-3.79l-2.95-9.09c-.38-1.18.1-2.46,1.15-3.1l8.33-5.06c1.06-.64,2.42-.47,3.28.41l6.7,6.81c1.53-.36,3.09-.6,4.65-.72l4.34-8.51c.56-1.1,1.81-1.67,3.01-1.38l9.46,2.31c1.2.29,2.04,1.37,2.03,2.61l-.08,9.55c1.33.83,2.6,1.76,3.79,2.78l9.09-2.95c1.18-.38,2.46.1,3.1,1.15l5.06,8.33c.64,1.06.47,2.42-.41,3.28l-6.81,6.7c.36,1.53.6,3.09.72,4.65l8.51,4.34c1.1.56,1.67,1.81,1.38,3.01l-2.31,9.46c-.29,1.2-1.38,2.04-2.61,2.03l-9.55-.08c-.83,1.33-1.76,2.6-2.78,3.79l2.95,9.09c.38,1.18-.1,2.46-1.15,3.1l-8.33,5.06c-1.06.64-2.42.47-3.28-.41l-6.7-6.81c-1.53.36-3.09.6-4.65.72l-4.34,8.51c-.56,1.1-1.81,1.67-3.01,1.38Zm-6.15-6.99l5.36,1.31,4.08-8c.44-.87,1.33-1.43,2.31-1.45,2.18-.05,4.36-.39,6.47-1,.94-.27,1.96,0,2.64.69l6.3,6.41,4.72-2.86-2.78-8.55c-.3-.93-.07-1.95.61-2.66,1.52-1.59,2.82-3.37,3.87-5.28.47-.86,1.38-1.39,2.36-1.38l8.98.07,1.31-5.36-8-4.08c-.87-.44-1.43-1.33-1.45-2.31-.05-2.18-.39-4.36-1-6.47-.27-.94,0-1.96.69-2.64l6.41-6.3-2.87-4.72-8.55,2.78c-.93.3-1.95.07-2.66-.61-1.59-1.51-3.36-2.82-5.28-3.87-.86-.47-1.39-1.38-1.38-2.36l.07-8.98-5.36-1.31-4.08,8c-.44.87-1.33,1.43-2.31,1.45-2.18.05-4.36.39-6.47,1-.94.27-1.96,0-2.64-.69l-6.3-6.41-4.72,2.86,2.78,8.55c.3.93.07,1.95-.61,2.66-1.51,1.59-2.82,3.36-3.87,5.28-.47.86-1.38,1.39-2.36,1.38l-8.98-.07-1.31,5.36,8,4.08c.87.44,1.43,1.33,1.45,2.31.05,2.18.39,4.36,1,6.47.27.94,0,1.96-.69,2.64l-6.41,6.3,2.87,4.72,8.55-2.78c.93-.3,1.95-.07,2.66.61,1.59,1.51,3.37,2.82,5.28,3.87.86.47,1.39,1.38,1.38,2.36l-.07,8.98Zm47.02-20.03h0s0,0,0,0Z"/>
                <path class="cls-15" d="m51.5,71.51c-8.87-2.17-14.32-11.14-12.15-20.01,2.17-8.87,11.14-14.32,20.01-12.15,8.87,2.17,14.32,11.14,12.15,20.01-2.17,8.87-11.14,14.32-20.01,12.15Zm7.23-29.57c-7.44-1.82-14.97,2.75-16.79,10.19-1.82,7.44,2.75,14.97,10.19,16.79,7.44,1.82,14.97-2.75,16.79-10.19,1.82-7.44-2.75-14.97-10.19-16.79Z"/>
              </g>
              <g>
                <path class="cls-16" d="m99.47,127.59l-8.18-3.04c-1.16-.43-1.87-1.6-1.72-2.82l.99-8.06c-.82-.84-1.57-1.75-2.24-2.71l-8.11-.54c-1.23-.08-2.25-1-2.45-2.22l-1.46-8.61c-.21-1.22.45-2.42,1.59-2.9l7.47-3.18c.16-.57.34-1.13.54-1.68.2-.55.43-1.09.68-1.63l-3.59-7.29c-.54-1.11-.26-2.44.69-3.23l6.73-5.57c.95-.79,2.32-.82,3.3-.08l6.49,4.89c1.14-.29,2.3-.49,3.47-.59l4.52-6.75c.69-1.03,1.99-1.45,3.14-1.02l8.18,3.04c1.16.43,1.87,1.6,1.72,2.82l-.98,8.06c.82.84,1.57,1.75,2.24,2.71l8.11.54c1.23.08,2.25,1,2.45,2.22l1.46,8.61c.21,1.22-.45,2.42-1.59,2.9l-7.47,3.18c-.16.57-.34,1.13-.54,1.68s-.43,1.09-.68,1.63l3.59,7.29c.54,1.11.26,2.44-.69,3.23l-6.73,5.57c-.95.79-2.32.82-3.3.08l-6.49-4.89c-1.14.3-2.3.49-3.47.59l-4.52,6.75c-.69,1.03-1.99,1.45-3.14,1.02Zm-4.35-7.31l4.24,1.57,4.09-6.11c.49-.73,1.3-1.17,2.18-1.18,1.59-.02,3.16-.29,4.67-.79.83-.28,1.75-.13,2.45.4l5.88,4.43,3.48-2.88-3.25-6.6c-.39-.79-.36-1.71.06-2.48.39-.69.72-1.42,1-2.16.28-.74.5-1.51.66-2.29.18-.86.76-1.57,1.57-1.92l6.77-2.88-.75-4.46-7.34-.49c-.88-.06-1.67-.54-2.11-1.3-.81-1.37-1.83-2.6-3.02-3.65-.66-.58-.98-1.45-.88-2.32l.89-7.3-4.24-1.57-4.09,6.11c-.49.73-1.3,1.17-2.18,1.18-1.59.02-3.16.29-4.67.79-.83.28-1.75.13-2.45-.4l-5.88-4.43-3.48,2.88,3.25,6.6c.39.79.36,1.71-.06,2.48-.38.69-.72,1.42-1,2.16-.28.75-.5,1.52-.66,2.29-.18.86-.76,1.57-1.57,1.92l-6.77,2.88.75,4.46,7.34.49c.88.06,1.67.54,2.11,1.3.81,1.37,1.83,2.59,3.02,3.65.66.58.98,1.45.88,2.32l-.89,7.3Z"/>
                <path class="cls-17" d="m101.73,108.99c-5.47-2.03-8.26-8.13-6.23-13.6,2.03-5.47,8.13-8.26,13.6-6.23,5.47,2.03,8.26,8.13,6.23,13.6-2.03,5.47-8.13,8.26-13.6,6.23Zm6.44-17.32c-4.09-1.52-8.65.57-10.17,4.66-1.52,4.09.57,8.65,4.66,10.17,4.09,1.52,8.65-.57,10.17-4.66,1.52-4.09-.57-8.65-4.66-10.17Z"/>
              </g>
            </g>
            <g>
              <g>
                <path class="cls-11" d="m50.47,96.24l-9.46-2.31c-1.2-.29-2.04-1.37-2.03-2.61l.08-9.55c-1.33-.83-2.6-1.76-3.79-2.78l-9.09,2.95c-1.18.38-2.46-.1-3.1-1.15l-5.06-8.33c-.64-1.06-.47-2.42.41-3.28l6.81-6.7c-.36-1.53-.6-3.09-.72-4.65l-8.51-4.34c-1.1-.56-1.67-1.81-1.38-3.01l2.31-9.46c.29-1.2,1.38-2.04,2.61-2.03l9.55.08c.83-1.33,1.76-2.6,2.78-3.79l-2.95-9.09c-.38-1.18.1-2.46,1.15-3.1l8.33-5.06c1.06-.64,2.42-.47,3.28.41l6.7,6.81c1.53-.36,3.09-.6,4.65-.72l4.34-8.51c.56-1.1,1.81-1.67,3.01-1.38l9.46,2.31c1.2.29,2.04,1.37,2.03,2.61l-.08,9.55c1.33.83,2.6,1.76,3.79,2.78l9.09-2.95c1.18-.38,2.46.1,3.1,1.15l5.06,8.33c.64,1.06.47,2.42-.41,3.28l-6.81,6.7c.36,1.53.6,3.09.72,4.65l8.51,4.34c1.1.56,1.67,1.81,1.38,3.01l-2.31,9.46c-.29,1.2-1.38,2.04-2.61,2.03l-9.55-.08c-.83,1.33-1.76,2.6-2.78,3.79l2.95,9.09c.38,1.18-.1,2.46-1.15,3.1l-8.33,5.06c-1.06.64-2.42.47-3.28-.41l-6.7-6.81c-1.53.36-3.09.6-4.65.72l-4.34,8.51c-.56,1.1-1.81,1.67-3.01,1.38Zm-6.15-6.99l5.36,1.31,4.08-8c.44-.87,1.33-1.43,2.31-1.45,2.18-.05,4.36-.39,6.47-1,.94-.27,1.96,0,2.64.69l6.3,6.41,4.72-2.86-2.78-8.55c-.3-.93-.07-1.95.61-2.66,1.52-1.59,2.82-3.37,3.87-5.28.47-.86,1.38-1.39,2.36-1.38l8.98.07,1.31-5.36-8-4.08c-.87-.44-1.43-1.33-1.45-2.31-.05-2.18-.39-4.36-1-6.47-.27-.94,0-1.96.69-2.64l6.41-6.3-2.87-4.72-8.55,2.78c-.93.3-1.95.07-2.66-.61-1.59-1.51-3.36-2.82-5.28-3.87-.86-.47-1.39-1.38-1.38-2.36l.07-8.98-5.36-1.31-4.08,8c-.44.87-1.33,1.43-2.31,1.45-2.18.05-4.36.39-6.47,1-.94.27-1.96,0-2.64-.69l-6.3-6.41-4.72,2.86,2.78,8.55c.3.93.07,1.95-.61,2.66-1.51,1.59-2.82,3.36-3.87,5.28-.47.86-1.38,1.39-2.36,1.38l-8.98-.07-1.31,5.36,8,4.08c.87.44,1.43,1.33,1.45,2.31.05,2.18.39,4.36,1,6.47.27.94,0,1.96-.69,2.64l-6.41,6.3,2.87,4.72,8.55-2.78c.93-.3,1.95-.07,2.66.61,1.59,1.51,3.37,2.82,5.28,3.87.86.47,1.39,1.38,1.38,2.36l-.07,8.98Zm47.02-20.03h0s0,0,0,0Z"/>
                <path class="cls-10" d="m51.5,71.51c-8.87-2.17-14.32-11.14-12.15-20.01,2.17-8.87,11.14-14.32,20.01-12.15,8.87,2.17,14.32,11.14,12.15,20.01-2.17,8.87-11.14,14.32-20.01,12.15Zm7.23-29.57c-7.44-1.82-14.97,2.75-16.79,10.19-1.82,7.44,2.75,14.97,10.19,16.79,7.44,1.82,14.97-2.75,16.79-10.19,1.82-7.44-2.75-14.97-10.19-16.79Z"/>
              </g>
              <g>
                <path class="cls-13" d="m99.47,127.59l-8.18-3.04c-1.16-.43-1.87-1.6-1.72-2.82l.99-8.06c-.82-.84-1.57-1.75-2.24-2.71l-8.11-.54c-1.23-.08-2.25-1-2.45-2.22l-1.46-8.61c-.21-1.22.45-2.42,1.59-2.9l7.47-3.18c.16-.57.34-1.13.54-1.68.2-.55.43-1.09.68-1.63l-3.59-7.29c-.54-1.11-.26-2.44.69-3.23l6.73-5.57c.95-.79,2.32-.82,3.3-.08l6.49,4.89c1.14-.29,2.3-.49,3.47-.59l4.52-6.75c.69-1.03,1.99-1.45,3.14-1.02l8.18,3.04c1.16.43,1.87,1.6,1.72,2.82l-.98,8.06c.82.84,1.57,1.75,2.24,2.71l8.11.54c1.23.08,2.25,1,2.45,2.22l1.46,8.61c.21,1.22-.45,2.42-1.59,2.9l-7.47,3.18c-.16.57-.34,1.13-.54,1.68s-.43,1.09-.68,1.63l3.59,7.29c.54,1.11.26,2.44-.69,3.23l-6.73,5.57c-.95.79-2.32.82-3.3.08l-6.49-4.89c-1.14.3-2.3.49-3.47.59l-4.52,6.75c-.69,1.03-1.99,1.45-3.14,1.02Zm-4.35-7.31l4.24,1.57,4.09-6.11c.49-.73,1.3-1.17,2.18-1.18,1.59-.02,3.16-.29,4.67-.79.83-.28,1.75-.13,2.45.4l5.88,4.43,3.48-2.88-3.25-6.6c-.39-.79-.36-1.71.06-2.48.39-.69.72-1.42,1-2.16.28-.74.5-1.51.66-2.29.18-.86.76-1.57,1.57-1.92l6.77-2.88-.75-4.46-7.34-.49c-.88-.06-1.67-.54-2.11-1.3-.81-1.37-1.83-2.6-3.02-3.65-.66-.58-.98-1.45-.88-2.32l.89-7.3-4.24-1.57-4.09,6.11c-.49.73-1.3,1.17-2.18,1.18-1.59.02-3.16.29-4.67.79-.83.28-1.75.13-2.45-.4l-5.88-4.43-3.48,2.88,3.25,6.6c.39.79.36,1.71-.06,2.48-.38.69-.72,1.42-1,2.16-.28.75-.5,1.52-.66,2.29-.18.86-.76,1.57-1.57,1.92l-6.77,2.88.75,4.46,7.34.49c.88.06,1.67.54,2.11,1.3.81,1.37,1.83,2.59,3.02,3.65.66.58.98,1.45.88,2.32l-.89,7.3Z"/>
                <path class="cls-12" d="m101.73,108.99c-5.47-2.03-8.26-8.13-6.23-13.6,2.03-5.47,8.13-8.26,13.6-6.23,5.47,2.03,8.26,8.13,6.23,13.6-2.03,5.47-8.13,8.26-13.6,6.23Zm6.44-17.32c-4.09-1.52-8.65.57-10.17,4.66-1.52,4.09.57,8.65,4.66,10.17,4.09,1.52,8.65-.57,10.17-4.66,1.52-4.09-.57-8.65-4.66-10.17Z"/>
              </g>
            </g>
          </g>
        </g>
        <g>
          <polygon class="cls-5" points="151.28 104.45 277.82 104.45 279.55 94.05 279.55 94.05 153 94.05 151.28 104.45"/>
          <g>
            <polygon class="cls-19" points="275.66 117.46 149.11 117.46 152.45 97.38 278.99 97.38 275.66 117.46"/>
            <path class="cls-18" d="m152.45,97.38l-3.33,20.08h126.54l3.33-20.08h-126.54Zm120.81,17.24h-120.8l2.39-14.41h120.8l-2.39,14.41Z"/>
          </g>
        </g>
      </g>
      <g>
        <text class="cls-2" transform="translate(112.61 46.43) rotate(-.88)"><tspan class="cls-30" x="0" y="0">H</tspan><tspan class="cls-33" x="20.11" y="0">O</tspan><tspan class="cls-29" x="40.28" y="0">W</tspan></text>
        <text class="cls-1" transform="translate(138.27 87.29)"><tspan x="0" y="0">C</tspan><tspan class="cls-31" x="23.3" y="0">R</tspan><tspan class="cls-34" x="44.39" y="0">AFTED</tspan></text>
        <g>
          <text class="cls-25" transform="translate(176.11 111.82)"><tspan class="cls-28" x="0" y="0">L</tspan><tspan class="cls-4" x="6.18" y="0">EARN H</tspan><tspan class="cls-27" x="49.19" y="0">O</tspan><tspan class="cls-24" x="57.81" y="0">W...</tspan></text>
          <text class="cls-26" transform="translate(176.11 111.82)"><tspan class="cls-28" x="0" y="0">L</tspan><tspan class="cls-4" x="6.18" y="0">EARN H</tspan><tspan class="cls-27" x="49.19" y="0">O</tspan><tspan class="cls-24" x="57.81" y="0">W...</tspan></text>
        </g>
      </g>
    </g>
  </g>
</svg>